<svg xmlns="http://www.w3.org/2000/svg" viewBox="0 0 64 64">
  <symbol id="mark" viewBox="0 0 64 64">
    <!-- bell -->
    <path d="M32 16c-10.5 0-15.2 9.3-15.9 19.3-.2 3.3-1.6 5.8-3.9 7.7h39.6c-2.3-1.9-3.7-4.4-3.9-7.7C47.2 25.3 42.5 16 32 16Z" fill="#d9a441"/>
    <rect x="10.5" y="44.6" width="43" height="3.8" rx="1.9" fill="#eec06a"/>
    <circle cx="32" cy="53.4" r="3.4" fill="#d9a441"/>
    <!-- blackbird perched on the bell's left shoulder, facing left -->
    <g transform="translate(0 1.4)" stroke="#6b5226" stroke-width=".5">
      <ellipse cx="24.5" cy="19.5" rx="6.2" ry="3.6" fill="#100c07" transform="rotate(-18 24.5 19.5)"/>
      <circle cx="18.6" cy="15.2" r="2.9" fill="#100c07"/>
      <path d="M16 14.4l-4.6 1.4 4.7 1.1Z" fill="#eec06a" stroke="none"/>
      <path d="M27.8 19.8 37 12.4l-5.2 9Z" fill="#100c07"/>
      <ellipse cx="24.2" cy="17.6" rx="2.6" ry="1.2" fill="#e0491f" stroke="none" transform="rotate(-18 24.2 17.6)"/>
      <circle cx="18" cy="14.6" r=".6" fill="#eec06a" stroke="none"/>
    </g>
  </symbol>
  <use href="#mark"/>
</svg>
